<svg width="51" height="51" viewBox="0 0 51 51" fill="none" xmlns="http://www.w3.org/2000/svg">
<rect width="51" height="51" rx="15.1111" fill="#F2F5FF"/>
<path d="M46.002 15.4167C46.7844 15.4167 47.4186 14.7824 47.4186 14C47.4186 13.2176 46.7844 12.5833 46.002 12.5833V14V15.4167ZM30.002 12.5833C29.2195 12.5833 28.5853 13.2176 28.5853 14C28.5853 14.7824 29.2195 15.4167 30.002 15.4167V14V12.5833ZM39.4186 6C39.4186 5.2176 38.7844 4.58333 38.002 4.58333C37.2196 4.58333 36.5853 5.2176 36.5853 6H38.002H39.4186ZM36.5853 22C36.5853 22.7824 37.2196 23.4167 38.002 23.4167C38.7844 23.4167 39.4186 22.7824 39.4186 22H38.002H36.5853ZM46.002 14V12.5833H38.002V14V15.4167H46.002V14ZM38.002 14V12.5833H30.002V14V15.4167H38.002V14ZM38.002 6H36.5853V14H38.002H39.4186V6H38.002ZM38.002 14H36.5853V22H38.002H39.4186V14H38.002Z" fill="#8EA3E6"/>
<path d="M25 8C16.0433 8 11.565 8 8.78249 10.7825C6 13.565 6 18.0433 6 27C6 35.9567 6 40.435 8.78249 43.2175C11.565 46 16.0433 46 25 46C33.9567 46 38.435 46 41.2175 43.2175C44 40.435 44 35.9567 44 27V26" stroke="#8EA3E6" stroke-width="2.83333" stroke-linecap="round"/>
<path d="M6 30.2709C7.23804 30.0911 8.48968 30.0022 9.74343 30.0053C15.0473 29.8933 20.2213 31.5459 24.3421 34.6684C28.164 37.5643 30.8495 41.5497 32 46" stroke="#8EA3E6" stroke-width="2.83333" stroke-linejoin="round"/>
<path d="M44 35.7924C41.6491 34.6017 39.2175 33.9976 36.7724 34.0001C33.069 33.9855 29.403 35.3467 26 38" stroke="#8EA3E6" stroke-width="2.83333" stroke-linejoin="round"/>
</svg>
